# xmcd
# 
# Track frame offsets:
#     150
#     35600
#     66700
#     92010
#     118225
#     144392
#     172767
#     198470
# 
# Disc length: 2996
# 
# Revision: 0
# Processed by: cddbd v1.5.2PL0 Copyright (c) Steve Scherf et al.
# Submitted via: BonkEnc v1.0.5
# 
DISCID=730bb208
DTITLE=George Benson and Earl Klugh - Collaboration
DYEAR=1987
DGENRE=Jazz
TTITLE0=Mt. Airy Road
TTITLE1=Mimosa
TTITLE2=Brazilian Stomp
TTITLE3=Dreamin'
TTITLE4=Since You're Gone
TTITLE5=Collaboration
TTITLE6=Jamaica
TTITLE7=Love Theme From "Romeo and Juliet"
EXTD=YEAR: 1987
EXTT0=
EXTT1=
EXTT2=
EXTT3=
EXTT4=
EXTT5=
EXTT6=
EXTT7=
PLAYORDER=
